# xmcd
#
# Track frame offsets: 
#        150
#        9909
#        20757
#        29184
#        36897
#        48072
#        57051
#        68757
#        78972
#        91404
#        99511
#        112249
#        123973
#        136482
#        149050
#        165807
#        181815
#        193576
#        204626
#        216452
#        224504
#        236276
#        244747
#        260839
#        273187
#        283451
#        301490
#        308568
#
# Disc length: 4219 seconds
#
# Revision: 0
# Processed by: cddbd v1.5.2PL0 Copyright (c) Steve Scherf et al.
# Submitted via: ExactAudioCopy v0.99pb4
#
DISCID=9f10791c
DTITLE=Johnny Cash - Legend
DYEAR=1900
DGENRE=Country
TTITLE0=Rock Island Line
TTITLE1=I Heard That Lonesome Whistle Blow
TTITLE2=Country Boy
TTITLE3=If the Good Lord's Willing (And The Creek Don't Rise)
TTITLE4=Cry! Cry! Cry!
TTITLE5=Remember Me (I'm The One Who Loves You)
TTITLE6=So Doggone Lonesome
TTITLE7=I Was There When It Happened
TTITLE8=I Walk The Line
TTITLE9=The Wreck Of The Old '97
TTITLE10=Folsom Prison Blues
TTITLE11=Doin' My Time
TTITLE12=Ring Of Fire (Live)
TTITLE13=Peace In The Valley (Live)
TTITLE14=Sunday Morning Coming Down (Live)
TTITLE15=A Boy Named Sue (Live)
TTITLE16=Highway Man (Live)
TTITLE17=Big River (Live)
TTITLE18=Sixteen Tons (Live)
TTITLE19=The Wall (Live)
TTITLE20=I Still Miss Someone (Live)
TTITLE21=I Got Stripes (Live)
TTITLE22=City Of New Orleans (Live)
TTITLE23=Jackson (with June Carter) (Live)
TTITLE24=If I Were A Carpenter (Live)
TTITLE25=Orange Blossom Special (Live)
TTITLE26=Casey Jones (Live)
TTITLE27=Get Rythm (Live)
EXTD=
EXTT0=
EXTT1=
EXTT2=
EXTT3=
EXTT4=
EXTT5=
EXTT6=
EXTT7=
EXTT8=
EXTT9=
EXTT10=
EXTT11=
EXTT12=
EXTT13=
EXTT14=
EXTT15=
EXTT16=
EXTT17=
EXTT18=
EXTT19=
EXTT20=
EXTT21=
EXTT22=
EXTT23=
EXTT24=
EXTT25=
EXTT26=
EXTT27=
PLAYORDER=
